<?xml version="1.0"?>
<svg xmlns="http://www.w3.org/2000/svg" xmlns:xlink="http://www.w3.org/1999/xlink" version="1.1" id="Capa_1" x="0px" y="0px" viewBox="0 0 512.001 512.001" style="enable-background:new 0 0 512.001 512.001;" xml:space="preserve" width="512px" height="512px"><g><g>
	<g>
		<path d="M173.048,338.77L160.8,383.975l-12.336-45.205c-1.664-5.294-14.542-1.548-13.129,4.053    c17.947,56.107,15.134,55.144,19.783,57.189c4.987,2.196,13.228,1.251,14.672-3.437c16.566-54.545,16.566-53.943,16.566-54.721    C186.355,337.09,174.665,333.609,173.048,338.77z" data-original="#000000" class="active-path" data-old_color="#000000" fill="#FFFFFF"/>
	</g>
</g><g>
	<g>
		<path d="M227.769,340.929c-8.795-7.594-37.01-8.844-37.01,16.082c0.376,20.492-1.008,26.723,1.675,33.001    c1.115,2.614,6.241,8.595,11.412,10.045c5.235,1.471,11.743,1.474,17.051,0c7.678-2.13,13.129-8.433,13.129-19.694    C233.158,361.069,236.909,348.826,227.769,340.929z M220.279,380.363c0,3.056-0.705,5.286-2.115,6.696    c-2.844,2.844-8.8,2.849-11.588,0c-1.381-1.41-2.071-3.642-2.071-6.696c0.512-21.27-1.294-26.614,2.071-30.049    c2.789-2.85,8.745-2.843,11.588,0C221.604,353.753,219.762,359.362,220.279,380.363z" data-original="#000000" class="active-path" data-old_color="#000000" fill="#FFFFFF"/>
	</g>
</g><g>
	<g>
		<path d="M280.024,336.215c-39.165,0.625-39.54-1.459-41.239,1.938c-1.93,3.857-0.964,10.398,3.172,10.398h12.161v47.848    c0,5.685,13.746,5.571,13.746,0.001v-47.848c11.143-0.472,13.502,1.201,15.245-1.851    C285.154,343.121,284.319,336.215,280.024,336.215z" data-original="#000000" class="active-path" data-old_color="#000000" fill="#FFFFFF"/>
	</g>
</g><g>
	<g>
		<path d="M303.376,388.646v-14.98c12.333-0.448,14.794,1.108,16.391-1.719c2.018-3.581,0.698-8.855-3.173-8.855h-13.218v-14.893    c23.146-0.536,24.862,1.336,26.701-1.807c1.252-2.137,1.533-5.452,0.088-8.283c-1.697-3.31-2.797-1.303-34.543-1.895    c-2.742,0-5.992,1.22-5.992,4.229c0.613,58.159-1.532,57.196,1.85,59.129c3.226,1.842,3.583,0.729,35.513,1.058    c4.217,0,5.159-6.631,3.085-10.178C328.242,387.319,326.816,389.19,303.376,388.646z" data-original="#000000" class="active-path" data-old_color="#000000" fill="#FFFFFF"/>
	</g>
</g><g>
	<g>
		<path d="M351.332,266.275H115.569c-4.142,0-7.499,3.357-7.499,7.499c0,4.142,3.357,7.499,7.499,7.499h235.763    c4.142,0,7.499-3.357,7.499-7.499C358.831,269.632,355.474,266.275,351.332,266.275z" data-original="#000000" class="active-path" data-old_color="#000000" fill="#FFFFFF"/>
	</g>
</g><g>
	<g>
		<path d="M351.332,451.919H115.569c-4.142,0-7.499,3.358-7.499,7.499c0,4.143,3.357,7.499,7.499,7.499h235.763    c4.142,0,7.499-3.357,7.499-7.499C358.831,455.276,355.474,451.919,351.332,451.919z" data-original="#000000" class="active-path" data-old_color="#000000" fill="#FFFFFF"/>
	</g>
</g><g>
	<g>
		<path d="M444.534,200.171c-3.124-2.719-7.86-2.392-10.58,0.733l-19.907,22.875l-6.395-7.946c-2.599-3.227-7.319-3.737-10.545-1.14    c-3.227,2.598-3.736,7.318-1.14,10.545l12.014,14.924c2.928,3.635,8.433,3.742,11.499,0.221l25.789-29.632    C447.987,207.626,447.658,202.89,444.534,200.171z" data-original="#000000" class="active-path" data-old_color="#000000" fill="#FFFFFF"/>
	</g>
</g><g>
	<g>
		<path d="M377.793,321.578c-10.456,0-18.962-8.506-18.962-18.961c0-4.142-3.357-7.499-7.499-7.499H178.084    c-4.143,0-7.499,3.357-7.499,7.499c0,4.143,3.357,7.499,7.499,7.499h166.583c3.356,14.829,16.444,26.01,32.17,26.446v59.977    c-15.726,0.436-28.813,11.618-32.17,26.447H122.236c-3.227-14.258-15.45-25.143-30.363-26.35v-60.172    c14.913-1.207,27.138-12.091,30.363-26.349h20.852c4.142,0,7.499-3.357,7.499-7.499c0-4.142-3.357-7.499-7.499-7.499H115.57    c-4.142,0-7.499,3.357-7.499,7.499c0,10.455-8.506,18.961-18.962,18.961c-6.747,0-12.235,5.488-12.235,12.235v65.474    c0,6.747,5.488,12.235,12.235,12.235c10.456,0,18.962,8.506,18.962,18.962c0,4.143,3.357,7.499,7.499,7.499h235.762    c4.142,0,7.499-3.357,7.499-7.499c0-10.453,8.506-18.959,18.962-18.959c7.743,0,14.042-6.299,14.042-14.042V335.62    C391.835,327.877,385.536,321.578,377.793,321.578z" data-original="#000000" class="active-path" data-old_color="#000000" fill="#FFFFFF"/>
	</g>
</g><g>
	<g>
		<path d="M481.576,200.833c-6.142-5.987,4.042-14.714-3.633-25.277c-7.648-10.528-19.194-3.599-22.981-11.275    c-2.469-3.88-3.677-11.677-12.485-14.541c-12.373-4.021-17.675,8.336-25.203,4.375c-2.938-0.637-9.529-7.913-19.444-4.039    l-11.121-15.996c-4.114-5.92-10.876-9.455-18.086-9.455H315.52l25.51-44.183c4.996-8.654,2.02-19.761-6.635-24.757l-92.231-53.25    c-8.692-5.018-19.76-2.025-24.758,6.634l-12.177,21.091c-2.071,3.587-0.842,8.173,2.745,10.244    c3.585,2.069,8.173,0.842,10.244-2.745l12.177-21.091c0.563-0.976,1.432-1.331,1.898-1.457c0.467-0.123,1.396-0.251,2.372,0.313    l92.23,53.25c1.493,0.862,2.007,2.778,1.146,4.27c-8.584,14.867-46.972,81.358-54.297,94.044h-72.207l-40.783-23.546    c-1.12-0.647-1.689-1.886-1.54-3.095c0.111-0.899-2.555,3.934,41.502-72.374c2.071-3.587,0.842-8.173-2.745-10.244    c-3.59-2.071-8.174-0.843-10.244,2.745l-37.037,64.151h-47.912c-7.354,0-14.252,3.607-18.451,9.645    c-64.566,93.809-63.863,88.759-63.863,96.922V480.25c0,17.508,14.243,31.751,31.751,31.751h364.392    c18.803,0,34.099-15.296,34.099-34.099c0-4.142-3.357-7.499-7.499-7.499c-4.142,0-7.499,3.357-7.499,7.499    c0,10.532-8.568,19.101-19.101,19.101H52.214c-9.237,0-16.753-7.516-16.753-16.753c0.173-256.332-0.983-250.739,1.685-250.747    c0.158,0,313.294-0.001,315.019-0.001l4.441,4.329c6.426,6.264-4.081,15.167,3.746,25.941    c7.823,10.769,19.608,3.547,23.577,11.588c1.826,2.475,4.551,15.597,17.644,15.597c5.103,0,7.851-2.099,13.929-5.259    c6.813-3.583,10.935,4.815,20.206,5.255V441.92c0,4.143,3.357,7.499,7.499,7.499c4.142,0,7.499-3.357,7.499-7.499V278.401    c1.105-1.664,1.098-2.003,4.256-8.293c2.514-5.094,8.17-3.817,12.979-5.017c8.397-1.485,14.278-9.495,12.785-18.198l-1.204-7.021    c-1.449-8.455,12.014-9.623,12.014-22.678C491.534,207.964,484.385,204.239,481.576,200.833z M361.716,195.882    c-0.075,7.171-10.049,8.207-11.859,18.623H46.818l49.823-71.672c1.396-2.01,3.69-3.209,6.136-3.209h41.451    c-0.256,4.22,1.002,8.633,3.792,12.232c2.978,3.836,4.347,4.021,23.521,15.131h-10.955c-4.143,0-7.499,3.357-7.499,7.499    c0,4.143,3.357,7.499,7.499,7.499h38.941c6.487,0,109.311,0,120.119,0c4.143,0,7.499-3.357,7.499-7.499    c0-4.142-3.357-7.499-7.499-7.499h-28.584l15.799-27.364h61.763c2.301,0,4.457,1.128,5.77,3.018l13.17,18.945    c-0.971,2.12-2.093,4.381-3.972,5.594c-4.48,2.892-13.933-0.451-20.346,8.377C357.52,183.441,361.771,190.665,361.716,195.882z     M464.741,242.406c1.182,7.354,1.406,7.146,1.068,7.611c-1.244,1.713-17.024-1.287-24.297,13.453l-3.217,6.516    c-0.414,0.835-1.251,0.398-3.609-0.965c-12.178-7.048-18.537-5.377-28.704,0.235c-3.9,2.151-2.092,1.907-6.306-5.787    c-7.232-14.654-22.996-11.663-24.297-13.453c-1.207-1.662,6.453-15.748-5.298-27.203c-5.717-5.604-5.133-4.945-5.305-5.222    c-0.48-0.778,0.153-0.92,5.306-6.018c12.516-12.2,2.813-27.071,5.817-27.514l7.109-1.034c17.449-2.535,18.25-20.371,20.943-18.97    l6.341,3.334c14.496,7.619,25.589-4.03,27.546-3.388c0.551,0.178,0.252,0.159,3.673,6.915    c7.241,14.673,22.971,11.638,24.297,13.452c1.22,1.68-6.46,15.744,5.298,27.202l5.193,5.063l0.001,0.001    C478.511,218.793,461.745,224.939,464.741,242.406z" data-original="#000000" class="active-path" data-old_color="#000000" fill="#FFFFFF"/>
	</g>
</g></g> </svg>
